<mxfile host="app.diagrams.net" modified="2023-06-04T20:39:25.825Z" agent="Mozilla/5.0 (Windows NT 10.0; Win64; x64; rv:109.0) Gecko/20100101 Firefox/113.0" etag="IC7JbVpgVvmj1pVrX6Zo" version="21.2.9" type="device">
  <diagram name="Page-1" id="m7Bp2A6nWGBkNWk2U6i1">
    <mxGraphModel dx="871" dy="538" grid="1" gridSize="10" guides="1" tooltips="1" connect="1" arrows="1" fold="1" page="1" pageScale="1" pageWidth="827" pageHeight="1169" math="0" shadow="0">
      <root>
        <mxCell id="0" />
        <mxCell id="1" parent="0" />
        <mxCell id="lsjaKCytuHzk95r_xpoM-2" value="" style="edgeStyle=none;curved=1;rounded=0;orthogonalLoop=1;jettySize=auto;html=1;fontSize=12;startSize=8;endSize=8;" edge="1" parent="1" source="rMrMTFMyCD8p0BETihjF-2" target="lsjaKCytuHzk95r_xpoM-1">
          <mxGeometry relative="1" as="geometry" />
        </mxCell>
        <mxCell id="rMrMTFMyCD8p0BETihjF-2" value="Pilote LED Bleu" style="rounded=0;whiteSpace=wrap;html=1;" parent="1" vertex="1">
          <mxGeometry x="130" y="520" width="100" height="40" as="geometry" />
        </mxCell>
        <mxCell id="rMrMTFMyCD8p0BETihjF-20" style="edgeStyle=orthogonalEdgeStyle;rounded=0;orthogonalLoop=1;jettySize=auto;html=1;entryX=0.5;entryY=1;entryDx=0;entryDy=0;" parent="1" source="rMrMTFMyCD8p0BETihjF-3" target="rMrMTFMyCD8p0BETihjF-35" edge="1">
          <mxGeometry relative="1" as="geometry">
            <mxPoint x="240" y="440" as="targetPoint" />
            <Array as="points">
              <mxPoint x="288" y="480" />
              <mxPoint x="263" y="480" />
            </Array>
          </mxGeometry>
        </mxCell>
        <mxCell id="rMrMTFMyCD8p0BETihjF-3" value="Pilote&lt;br&gt;&amp;nbsp;ESP-NOW" style="rounded=0;whiteSpace=wrap;html=1;" parent="1" vertex="1">
          <mxGeometry x="238" y="520" width="100" height="40" as="geometry" />
        </mxCell>
        <mxCell id="rMrMTFMyCD8p0BETihjF-25" style="edgeStyle=orthogonalEdgeStyle;rounded=0;orthogonalLoop=1;jettySize=auto;html=1;entryX=0.5;entryY=1;entryDx=0;entryDy=0;" parent="1" source="rMrMTFMyCD8p0BETihjF-7" target="rMrMTFMyCD8p0BETihjF-24" edge="1">
          <mxGeometry relative="1" as="geometry" />
        </mxCell>
        <mxCell id="rMrMTFMyCD8p0BETihjF-7" value="Pilote Switch 1" style="rounded=0;whiteSpace=wrap;html=1;" parent="1" vertex="1">
          <mxGeometry x="350" y="520" width="86" height="40" as="geometry" />
        </mxCell>
        <mxCell id="rMrMTFMyCD8p0BETihjF-12" value="Pilotes" style="text;html=1;strokeColor=none;fillColor=none;align=center;verticalAlign=middle;whiteSpace=wrap;rounded=0;" parent="1" vertex="1">
          <mxGeometry y="490" width="60" height="30" as="geometry" />
        </mxCell>
        <mxCell id="rMrMTFMyCD8p0BETihjF-13" value="Interfaces" style="text;html=1;strokeColor=none;fillColor=none;align=center;verticalAlign=middle;whiteSpace=wrap;rounded=0;" parent="1" vertex="1">
          <mxGeometry y="360" width="60" height="30" as="geometry" />
        </mxCell>
        <mxCell id="lsjaKCytuHzk95r_xpoM-10" style="edgeStyle=none;curved=1;rounded=0;orthogonalLoop=1;jettySize=auto;html=1;fontSize=12;startSize=8;endSize=8;" edge="1" parent="1" source="rMrMTFMyCD8p0BETihjF-14">
          <mxGeometry relative="1" as="geometry">
            <mxPoint x="70.00000000000011" y="220" as="targetPoint" />
          </mxGeometry>
        </mxCell>
        <mxCell id="rMrMTFMyCD8p0BETihjF-14" value="&lt;div&gt;Interface LED Verte&lt;/div&gt;" style="rounded=0;whiteSpace=wrap;html=1;" parent="1" vertex="1">
          <mxGeometry x="29" y="400" width="82" height="40" as="geometry" />
        </mxCell>
        <mxCell id="rMrMTFMyCD8p0BETihjF-24" value="Interface Switch" style="rounded=0;whiteSpace=wrap;html=1;" parent="1" vertex="1">
          <mxGeometry x="315" y="400" width="100" height="40" as="geometry" />
        </mxCell>
        <mxCell id="rMrMTFMyCD8p0BETihjF-32" value="Processus" style="text;html=1;strokeColor=none;fillColor=none;align=center;verticalAlign=middle;whiteSpace=wrap;rounded=0;" parent="1" vertex="1">
          <mxGeometry x="20" y="150" width="60" height="30" as="geometry" />
        </mxCell>
        <mxCell id="rMrMTFMyCD8p0BETihjF-34" value="Processus Principale" style="rounded=0;whiteSpace=wrap;html=1;" parent="1" vertex="1">
          <mxGeometry x="47" y="180" width="600" height="40" as="geometry" />
        </mxCell>
        <mxCell id="lsjaKCytuHzk95r_xpoM-12" value="" style="edgeStyle=none;curved=0;rounded=0;orthogonalLoop=1;jettySize=auto;html=1;fontSize=12;startSize=8;endSize=8;entryX=0.5;entryY=1;entryDx=0;entryDy=0;" edge="1" parent="1" source="rMrMTFMyCD8p0BETihjF-35" target="rMrMTFMyCD8p0BETihjF-34">
          <mxGeometry relative="1" as="geometry">
            <Array as="points">
              <mxPoint x="263" y="290" />
              <mxPoint x="347" y="290" />
            </Array>
          </mxGeometry>
        </mxCell>
        <mxCell id="rMrMTFMyCD8p0BETihjF-35" value="Service Syncronisation des communications" style="rounded=0;whiteSpace=wrap;html=1;" parent="1" vertex="1">
          <mxGeometry x="188" y="330" width="150" height="40" as="geometry" />
        </mxCell>
        <mxCell id="rMrMTFMyCD8p0BETihjF-49" style="edgeStyle=orthogonalEdgeStyle;rounded=0;orthogonalLoop=1;jettySize=auto;html=1;entryX=0.5;entryY=1;entryDx=0;entryDy=0;" parent="1" source="rMrMTFMyCD8p0BETihjF-1" target="rMrMTFMyCD8p0BETihjF-14" edge="1">
          <mxGeometry relative="1" as="geometry" />
        </mxCell>
        <mxCell id="rMrMTFMyCD8p0BETihjF-1" value="Pilote LED verte" style="rounded=0;whiteSpace=wrap;html=1;" parent="1" vertex="1">
          <mxGeometry x="20" y="520" width="100" height="40" as="geometry" />
        </mxCell>
        <mxCell id="rMrMTFMyCD8p0BETihjF-54" value="Service Base de Temps" style="rounded=0;whiteSpace=wrap;html=1;" parent="1" vertex="1">
          <mxGeometry x="600" y="280" width="80" height="40" as="geometry" />
        </mxCell>
        <mxCell id="rMrMTFMyCD8p0BETihjF-73" value="" style="edgeStyle=orthogonalEdgeStyle;rounded=0;orthogonalLoop=1;jettySize=auto;html=1;" parent="1" source="rMrMTFMyCD8p0BETihjF-66" target="rMrMTFMyCD8p0BETihjF-70" edge="1">
          <mxGeometry relative="1" as="geometry" />
        </mxCell>
        <mxCell id="rMrMTFMyCD8p0BETihjF-66" value="Pilote Capteur Mouvement I2C" style="rounded=0;whiteSpace=wrap;html=1;" parent="1" vertex="1">
          <mxGeometry x="558" y="520" width="97" height="40" as="geometry" />
        </mxCell>
        <mxCell id="rMrMTFMyCD8p0BETihjF-69" value="" style="edgeStyle=orthogonalEdgeStyle;rounded=0;orthogonalLoop=1;jettySize=auto;html=1;" parent="1" source="rMrMTFMyCD8p0BETihjF-67" target="rMrMTFMyCD8p0BETihjF-68" edge="1">
          <mxGeometry relative="1" as="geometry" />
        </mxCell>
        <mxCell id="rMrMTFMyCD8p0BETihjF-67" value="Pilote I2C Température et humidité " style="rounded=0;whiteSpace=wrap;html=1;" parent="1" vertex="1">
          <mxGeometry x="450" y="510" width="97" height="50" as="geometry" />
        </mxCell>
        <mxCell id="lsjaKCytuHzk95r_xpoM-13" style="edgeStyle=none;curved=0;rounded=0;orthogonalLoop=1;jettySize=auto;html=1;fontSize=12;startSize=8;endSize=8;entryX=0.75;entryY=1;entryDx=0;entryDy=0;" edge="1" parent="1" source="rMrMTFMyCD8p0BETihjF-68" target="rMrMTFMyCD8p0BETihjF-34">
          <mxGeometry relative="1" as="geometry">
            <mxPoint x="470" y="260" as="targetPoint" />
            <Array as="points">
              <mxPoint x="486" y="310" />
              <mxPoint x="497" y="310" />
            </Array>
          </mxGeometry>
        </mxCell>
        <mxCell id="rMrMTFMyCD8p0BETihjF-68" value="Interface Capteur Température et Humidité" style="rounded=0;whiteSpace=wrap;html=1;" parent="1" vertex="1">
          <mxGeometry x="436" y="390" width="100" height="50" as="geometry" />
        </mxCell>
        <mxCell id="rMrMTFMyCD8p0BETihjF-85" style="edgeStyle=orthogonalEdgeStyle;rounded=0;orthogonalLoop=1;jettySize=auto;html=1;" parent="1" source="rMrMTFMyCD8p0BETihjF-70" target="rMrMTFMyCD8p0BETihjF-34" edge="1">
          <mxGeometry relative="1" as="geometry">
            <Array as="points">
              <mxPoint x="597" y="360" />
              <mxPoint x="532" y="360" />
            </Array>
            <mxPoint x="610" y="230" as="targetPoint" />
          </mxGeometry>
        </mxCell>
        <mxCell id="rMrMTFMyCD8p0BETihjF-70" value="Interface Capteur Mouvement" style="rounded=0;whiteSpace=wrap;html=1;" parent="1" vertex="1">
          <mxGeometry x="557" y="400" width="100" height="40" as="geometry" />
        </mxCell>
        <mxCell id="lsjaKCytuHzk95r_xpoM-9" style="edgeStyle=none;curved=1;rounded=0;orthogonalLoop=1;jettySize=auto;html=1;fontSize=12;startSize=8;endSize=8;" edge="1" parent="1" source="lsjaKCytuHzk95r_xpoM-1">
          <mxGeometry relative="1" as="geometry">
            <mxPoint x="180" y="220" as="targetPoint" />
          </mxGeometry>
        </mxCell>
        <mxCell id="lsjaKCytuHzk95r_xpoM-1" value="&lt;div&gt;Interface LED Bleu&lt;/div&gt;" style="rounded=0;whiteSpace=wrap;html=1;" vertex="1" parent="1">
          <mxGeometry x="139" y="400" width="82" height="40" as="geometry" />
        </mxCell>
      </root>
    </mxGraphModel>
  </diagram>
</mxfile>
